<svg xmlns="http://www.w3.org/2000/svg" width="24.237" height="18.178" viewBox="0 0 24.237 18.178">
  <g id="noun_Cake_3591852" transform="translate(148.623 155.749)">
    <g id="Layer_2" data-name="Layer 2" transform="translate(-148.623 -155.749)">
      <path id="Tracé_9" data-name="Tracé 9" d="M2.866,23.678H25.371a.866.866,0,1,0,0-1.731H23.64V15.6h0v-1.93A3.843,3.843,0,0,0,19.8,9.828h-1.35V8.1a.866.866,0,1,0-1.731,0V9.828H15.071V6.366a.866.866,0,1,0-1.731,0V9.828H11.522V8.1a.866.866,0,1,0-1.731,0V9.828H8.44A3.843,3.843,0,0,0,4.6,13.671v8.275H2.866a.866.866,0,0,0,0,1.731ZM6.328,13.671A2.112,2.112,0,0,1,8.44,11.559H19.8a2.112,2.112,0,0,1,2.112,2.112v1.948a2.017,2.017,0,0,1-3.93.623,1.065,1.065,0,0,0-1.948,0,2.017,2.017,0,0,1-3.826,0,1.056,1.056,0,0,0-1.939,0A2.026,2.026,0,0,1,6.328,15.6Zm0,5.081a3.7,3.7,0,0,0,4.692-.545.3.3,0,0,1,.433,0,3.679,3.679,0,0,0,5.332,0,.312.312,0,0,1,.441,0,3.687,3.687,0,0,0,4.683.545v3.194H6.328Z" transform="translate(-2 -5.5)" fill="#121212"/>
    </g>
  </g>
</svg>
