<svg xmlns="http://www.w3.org/2000/svg" width="26.434" height="26.08" viewBox="0 0 26.434 26.08">
  <g id="noun_Calendar_2415471" transform="translate(-1 -2.21)">
    <g id="Layer_2" data-name="Layer 2" transform="translate(1 2.21)">
      <path id="Tracé_1" data-name="Tracé 1" d="M24.244,28.376H4.2A3.322,3.322,0,0,1,1,24.943V7.213A3.321,3.321,0,0,1,4.2,3.79H24.244a3.322,3.322,0,0,1,3.19,3.423v17.73a3.323,3.323,0,0,1-3.19,3.433ZM4.2,5.681A1.491,1.491,0,0,0,2.762,7.213v17.73A1.492,1.492,0,0,0,4.2,26.485H24.244a1.492,1.492,0,0,0,1.427-1.541V7.213a1.492,1.492,0,0,0-1.427-1.532Z" transform="translate(-1 -2.296)" fill="#39d0b2"/>
      <rect id="Rectangle_4" data-name="Rectangle 4" width="24.543" height="1.891" transform="translate(0.946 8.407)" fill="#39d0b2"/>
      <rect id="Rectangle_5" data-name="Rectangle 5" width="1.891" height="4.785" rx="0.946" transform="translate(5.18)" fill="#39d0b2"/>
      <rect id="Rectangle_6" data-name="Rectangle 6" width="1.891" height="4.785" rx="0.946" transform="translate(19.362 0.085)" fill="#39d0b2"/>
    </g>
  </g>
</svg>
