<svg xmlns="http://www.w3.org/2000/svg" width="25.91" height="26.08" viewBox="0 0 25.91 26.08">
  <g id="noun_personal_2531826" transform="translate(-1.063 -1)">
    <g id="Layer_2" data-name="Layer 2" transform="translate(1.063 1)">
      <path id="Tracé_5" data-name="Tracé 5" d="M15.2,11.4a5.2,5.2,0,1,1,5.2-5.2A5.2,5.2,0,0,1,15.2,11.4Zm0-8.67A3.468,3.468,0,1,0,18.67,6.2,3.468,3.468,0,0,0,15.2,2.734Z" transform="translate(-2.251 -1)" fill="#39d0b2"/>
      <path id="Tracé_6" data-name="Tracé 6" d="M23.915,28.942H4.112A3.052,3.052,0,0,1,1.728,27.8a2.965,2.965,0,0,1-.6-2.5,13.066,13.066,0,0,1,3.563-6.477A13.213,13.213,0,0,1,14.014,15a13.005,13.005,0,0,1,7.916,2.6,10.743,10.743,0,0,1,1.413,1.2,13.066,13.066,0,0,1,3.563,6.477,2.965,2.965,0,0,1-.6,2.5,3.052,3.052,0,0,1-2.393,1.17Zm-9.9-12.208a11.488,11.488,0,0,0-8.107,3.321A11.332,11.332,0,0,0,2.82,25.673a1.223,1.223,0,0,0,.251,1.04,1.327,1.327,0,0,0,1.04.494h19.8a1.327,1.327,0,0,0,1.04-.494,1.222,1.222,0,0,0,.251-1.04,11.332,11.332,0,0,0-3.1-5.618,9.13,9.13,0,0,0-1.162-1.023,11.341,11.341,0,0,0-6.936-2.3Z" transform="translate(-1.063 -2.862)" fill="#39d0b2"/>
    </g>
  </g>
</svg>
