<svg xmlns="http://www.w3.org/2000/svg" width="25.076" height="26.08" viewBox="0 0 25.076 26.08">
  <g id="noun_setting_2753127" transform="translate(-2.807 -1.254)">
    <g id="Layer_2" data-name="Layer 2" transform="translate(2.807 1.254)">
      <path id="Tracé_7" data-name="Tracé 7" d="M15.346,27.334a3.036,3.036,0,0,1-2.994-2.255,3.9,3.9,0,0,0-2.043-2.52,4.432,4.432,0,0,0-3.431-.424A3.173,3.173,0,0,1,3.235,20.9a2.707,2.707,0,0,1,.582-3.566,3.712,3.712,0,0,0,1.312-2.909v-.239a3.69,3.69,0,0,0-1.283-2.909A2.709,2.709,0,0,1,3.216,7.72,3.168,3.168,0,0,1,6.84,6.441a4.394,4.394,0,0,0,3.412-.389,3.935,3.935,0,0,0,2.091-2.52,3.112,3.112,0,0,1,6,0,3.9,3.9,0,0,0,2.043,2.493,4.422,4.422,0,0,0,3.431.424,3.173,3.173,0,0,1,3.642,1.235,2.707,2.707,0,0,1-.582,3.566,3.712,3.712,0,0,0-1.312,2.909V14.4a3.691,3.691,0,0,0,1.283,2.891,2.709,2.709,0,0,1,.629,3.557,3.168,3.168,0,0,1-3.623,1.279,4.394,4.394,0,0,0-3.412.389,3.935,3.935,0,0,0-2.091,2.52A3.041,3.041,0,0,1,15.346,27.334Zm-7.29-6.7a6.131,6.131,0,0,1,2.908.743,5.262,5.262,0,0,1,2.766,3.386,1.661,1.661,0,0,0,3.212,0A5.515,5.515,0,0,1,19.7,21.348a6.251,6.251,0,0,1,4.553-.522,1.7,1.7,0,0,0,1.972-.643,1.447,1.447,0,0,0-.318-1.921,5,5,0,0,1-1.777-3.908v-.212a4.976,4.976,0,0,1,1.749-3.89,1.449,1.449,0,0,0,.366-1.913,1.692,1.692,0,0,0-1.953-.687,5.98,5.98,0,0,1-4.562-.433,5.262,5.262,0,0,1-2.766-3.386,1.661,1.661,0,0,0-3.212,0,5.237,5.237,0,0,1-2.728,3.386,5.983,5.983,0,0,1-4.581.539A1.7,1.7,0,0,0,4.468,8.4a1.447,1.447,0,0,0,.318,1.921A5,5,0,0,1,6.564,14.23v.212a4.976,4.976,0,0,1-1.749,3.89,1.449,1.449,0,0,0-.366,1.913,1.692,1.692,0,0,0,1.953.687,5.664,5.664,0,0,1,1.654-.3Z" transform="translate(-2.807 -1.254)"/>
      <path id="Tracé_8" data-name="Tracé 8" d="M15.334,20.418a5.084,5.084,0,1,1,5.084-5.084A5.084,5.084,0,0,1,15.334,20.418Zm0-8.842a3.758,3.758,0,1,0,3.758,3.758A3.758,3.758,0,0,0,15.334,11.576Z" transform="translate(-2.796 -2.296)"/>
    </g>
  </g>
</svg>
